<svg width="142" height="28" viewBox="0 0 142 28" fill="none" xmlns="http://www.w3.org/2000/svg">
<path fill-rule="evenodd" clip-rule="evenodd" d="M10.8 5H7.2V9.65441L3.90884 6.36325L1.36325 8.90883L4.65442 12.2H0V15.8H4.65441L1.36325 19.0911L3.90884 21.6368L7.2 18.3456V23H10.8V18.3456L14.0912 21.6368L16.6368 19.0912L13.3456 15.8H18V12.2H13.3456L16.6368 8.90883L14.0912 6.36324L10.8 9.65441V5Z" fill="#B5B89B"/>
<path d="M22.864 22V14.824V9.328H26.152V14.488H26.344C26.44 13.24 26.648 12.216 26.968 11.416C27.288 10.6 27.744 9.992 28.336 9.592C28.928 9.192 29.68 8.992 30.592 8.992C31.968 8.992 33 9.448 33.688 10.36C34.392 11.272 34.744 12.632 34.744 14.44V22H30.856V14.944C30.856 14.08 30.72 13.432 30.448 13C30.192 12.568 29.776 12.352 29.2 12.352C28.72 12.352 28.296 12.52 27.928 12.856C27.56 13.192 27.272 13.736 27.064 14.488C26.856 15.24 26.752 16.248 26.752 17.512V22H22.864ZM40.8766 25.792C39.4526 25.792 38.3246 25.68 37.4926 25.456C36.6606 25.232 36.0686 24.92 35.7166 24.52C35.3646 24.136 35.1886 23.688 35.1886 23.176C35.1886 22.472 35.4686 21.912 36.0286 21.496C36.5886 21.064 37.4046 20.768 38.4766 20.608V20.488C37.6606 20.488 37.0206 20.352 36.5566 20.08C36.0926 19.792 35.8606 19.4 35.8606 18.904C35.8606 18.44 36.0686 18.024 36.4846 17.656C36.9166 17.288 37.6126 17.104 38.5726 17.104V16.936C37.7086 16.728 37.0206 16.328 36.5086 15.736C35.9966 15.144 35.7406 14.376 35.7406 13.432C35.7406 12.6 35.9486 11.88 36.3646 11.272C36.7966 10.664 37.4206 10.192 38.2366 9.856C39.0526 9.504 40.0446 9.328 41.2126 9.328H47.5246V12.304L43.1806 11.752V11.944C44.5086 12.12 45.4046 12.424 45.8686 12.856C46.3486 13.272 46.5886 13.776 46.5886 14.368C46.5886 14.96 46.4046 15.488 46.0366 15.952C45.6846 16.416 45.1326 16.784 44.3806 17.056C43.6286 17.312 42.6766 17.44 41.5246 17.44C41.1726 17.44 40.8126 17.424 40.4446 17.392C40.0926 17.36 39.7886 17.312 39.5326 17.248C39.2606 17.36 39.0446 17.48 38.8846 17.608C38.7406 17.72 38.6686 17.84 38.6686 17.968C38.6686 18.048 38.7006 18.112 38.7646 18.16C38.8286 18.192 38.9166 18.216 39.0286 18.232C39.1566 18.248 39.3006 18.256 39.4606 18.256H43.3006C43.6366 18.256 44.0526 18.28 44.5486 18.328C45.0606 18.36 45.5646 18.48 46.0606 18.688C46.5726 18.88 46.9966 19.208 47.3326 19.672C47.6686 20.136 47.8366 20.792 47.8366 21.64C47.8366 22.6 47.5806 23.384 47.0686 23.992C46.5726 24.6 45.8126 25.048 44.7886 25.336C43.7646 25.64 42.4606 25.792 40.8766 25.792ZM40.8766 22.384C41.9486 22.384 42.7406 22.344 43.2526 22.264C43.7646 22.2 44.1006 22.104 44.2606 21.976C44.4206 21.848 44.5006 21.704 44.5006 21.544C44.5006 21.32 44.4366 21.144 44.3086 21.016C44.1806 20.888 44.0206 20.8 43.8286 20.752C43.6366 20.688 43.4446 20.656 43.2526 20.656C43.0766 20.64 42.9326 20.632 42.8206 20.632H39.5806C39.0686 20.808 38.7166 20.976 38.5246 21.136C38.3486 21.28 38.2606 21.448 38.2606 21.64C38.2606 21.864 38.3646 22.024 38.5726 22.12C38.7966 22.232 39.1006 22.304 39.4846 22.336C39.8846 22.368 40.3486 22.384 40.8766 22.384ZM41.2846 15.328C41.7966 15.328 42.1886 15.168 42.4606 14.848C42.7486 14.528 42.8926 14.088 42.8926 13.528C42.8926 12.968 42.7486 12.52 42.4606 12.184C42.1726 11.832 41.7726 11.656 41.2606 11.656C40.7646 11.656 40.3646 11.832 40.0606 12.184C39.7726 12.52 39.6286 12.968 39.6286 13.528C39.6286 13.896 39.6926 14.216 39.8206 14.488C39.9486 14.76 40.1326 14.968 40.3726 15.112C40.6286 15.256 40.9326 15.328 41.2846 15.328ZM51.6775 22.336C51.0375 22.336 50.4295 22.224 49.8535 22C49.2775 21.776 48.8055 21.416 48.4375 20.92C48.0695 20.408 47.8855 19.728 47.8855 18.88C47.8855 18.096 48.0375 17.464 48.3415 16.984C48.6455 16.488 49.0535 16.096 49.5655 15.808C50.0775 15.504 50.6375 15.28 51.2455 15.136C51.8535 14.976 52.4535 14.84 53.0455 14.728C53.8775 14.568 54.5015 14.44 54.9175 14.344C55.3335 14.248 55.6135 14.136 55.7575 14.008C55.9175 13.88 55.9975 13.704 55.9975 13.48C55.9975 13.016 55.8215 12.664 55.4695 12.424C55.1335 12.184 54.6855 12.064 54.1255 12.064C53.7735 12.064 53.4215 12.128 53.0695 12.256C52.7175 12.384 52.4295 12.616 52.2055 12.952C51.9815 13.272 51.8775 13.736 51.8935 14.344L48.4375 14.104C48.4055 13.096 48.5575 12.264 48.8935 11.608C49.2295 10.936 49.6855 10.416 50.2615 10.048C50.8535 9.664 51.4935 9.392 52.1815 9.232C52.8855 9.072 53.5815 8.992 54.2695 8.992C55.5335 8.992 56.5735 9.232 57.3895 9.712C58.2055 10.176 58.8055 10.856 59.1895 11.752C59.5895 12.632 59.7895 13.704 59.7895 14.968V17.224C59.7895 17.752 59.7895 18.288 59.7895 18.832C59.7895 19.36 59.7895 19.888 59.7895 20.416C59.7895 20.944 59.7895 21.472 59.7895 22H56.4295C56.4295 21.424 56.4295 20.84 56.4295 20.248C56.4295 19.656 56.4295 19.032 56.4295 18.376H56.2855C56.2215 19.096 55.9815 19.76 55.5655 20.368C55.1655 20.96 54.6295 21.44 53.9575 21.808C53.3015 22.16 52.5415 22.336 51.6775 22.336ZM53.2855 19.504C53.5575 19.504 53.8455 19.456 54.1495 19.36C54.4695 19.248 54.7655 19.072 55.0375 18.832C55.3255 18.592 55.5575 18.264 55.7335 17.848C55.9095 17.416 55.9975 16.888 55.9975 16.264V15.688L56.6455 15.616C56.5175 15.824 56.3015 15.992 55.9975 16.12C55.7095 16.248 55.3815 16.352 55.0135 16.432C54.6455 16.496 54.2695 16.568 53.8855 16.648C53.5175 16.712 53.1735 16.808 52.8535 16.936C52.5335 17.048 52.2695 17.208 52.0615 17.416C51.8695 17.608 51.7735 17.88 51.7735 18.232C51.7735 18.648 51.9175 18.968 52.2055 19.192C52.5095 19.4 52.8695 19.504 53.2855 19.504ZM60.8928 22V15.112V9.328H64.2528V14.368H64.4448C64.5408 13.024 64.7248 11.968 64.9968 11.2C65.2848 10.416 65.6368 9.864 66.0528 9.544C66.4848 9.208 66.9648 9.04 67.4928 9.04C67.7808 9.04 68.0768 9.08 68.3808 9.16C68.7008 9.24 69.0128 9.368 69.3168 9.544L69.1248 13.864C68.7728 13.656 68.4288 13.504 68.0928 13.408C67.7568 13.296 67.4368 13.24 67.1328 13.24C66.6208 13.24 66.1888 13.384 65.8368 13.672C65.4848 13.96 65.2128 14.384 65.0208 14.944C64.8448 15.504 64.7568 16.184 64.7568 16.984V22H60.8928ZM75.7649 22.336C74.5649 22.336 73.5569 22.168 72.7409 21.832C71.9409 21.48 71.2929 21.008 70.7969 20.416C70.3009 19.808 69.9409 19.12 69.7169 18.352C69.5089 17.584 69.4049 16.776 69.4049 15.928C69.4049 15.016 69.5169 14.144 69.7409 13.312C69.9809 12.48 70.3409 11.744 70.8209 11.104C71.3169 10.448 71.9489 9.936 72.7169 9.568C73.5009 9.184 74.4369 8.992 75.5249 8.992C76.6129 8.992 77.5409 9.184 78.3089 9.568C79.0929 9.936 79.7169 10.456 80.1809 11.128C80.6449 11.8 80.9409 12.576 81.0689 13.456C81.2129 14.336 81.1969 15.288 81.0209 16.312L71.8289 16.456V14.344L78.0449 14.224L77.5409 15.448C77.6369 14.712 77.6209 14.096 77.4929 13.6C77.3809 13.088 77.1649 12.704 76.8449 12.448C76.5249 12.176 76.0849 12.04 75.5249 12.04C74.9329 12.04 74.4609 12.192 74.1089 12.496C73.7569 12.8 73.5089 13.232 73.3649 13.792C73.2209 14.336 73.1489 14.984 73.1489 15.736C73.1489 17.032 73.3649 17.976 73.7969 18.568C74.2289 19.16 74.8929 19.456 75.7889 19.456C76.1729 19.456 76.4929 19.408 76.7489 19.312C77.0049 19.216 77.2129 19.08 77.3729 18.904C77.5329 18.712 77.6449 18.488 77.7089 18.232C77.7729 17.96 77.7969 17.656 77.7809 17.32L81.3329 17.512C81.3809 18.04 81.3249 18.584 81.1649 19.144C81.0209 19.704 80.7409 20.224 80.3249 20.704C79.9089 21.184 79.3249 21.576 78.5729 21.88C77.8369 22.184 76.9009 22.336 75.7649 22.336ZM82.1984 22V14.968V9.328H85.4864V14.488H85.6784C85.7904 13.144 86.0064 12.072 86.3264 11.272C86.6624 10.472 87.1024 9.896 87.6464 9.544C88.2064 9.176 88.8704 8.992 89.6384 8.992C90.4384 8.992 91.0864 9.192 91.5824 9.592C92.0784 9.976 92.4464 10.576 92.6864 11.392C92.9264 12.192 93.0384 13.224 93.0224 14.488H93.2144C93.3264 13.16 93.5584 12.096 93.9104 11.296C94.2624 10.496 94.7264 9.912 95.3024 9.544C95.8784 9.176 96.5584 8.992 97.3424 8.992C97.9984 8.992 98.5664 9.112 99.0464 9.352C99.5264 9.592 99.9264 9.952 100.246 10.432C100.582 10.912 100.83 11.52 100.99 12.256C101.15 12.976 101.23 13.824 101.23 14.8V22H97.3424V15.136C97.3424 14.528 97.2864 14.024 97.1744 13.624C97.0784 13.208 96.9264 12.904 96.7184 12.712C96.5104 12.504 96.2464 12.4 95.9264 12.4C95.5104 12.4 95.1264 12.592 94.7744 12.976C94.4224 13.344 94.1344 13.904 93.9104 14.656C93.7024 15.408 93.5984 16.36 93.5984 17.512V22H89.8064V15.04C89.8064 14.432 89.7504 13.936 89.6384 13.552C89.5424 13.168 89.3824 12.88 89.1584 12.688C88.9504 12.496 88.6864 12.4 88.3664 12.4C87.9664 12.4 87.5904 12.568 87.2384 12.904C86.9024 13.224 86.6224 13.76 86.3984 14.512C86.1904 15.264 86.0864 16.264 86.0864 17.512V22H82.1984ZM109.975 22.336C109.255 22.336 108.623 22.176 108.079 21.856C107.535 21.536 107.079 21.064 106.711 20.44C106.359 19.8 106.095 19.016 105.919 18.088H105.751V22H102.367V17.536V5.2H106.255V8.92C106.255 9.352 106.231 9.816 106.183 10.312C106.151 10.808 106.095 11.32 106.015 11.848C105.951 12.376 105.871 12.912 105.775 13.456H105.991C106.135 12.4 106.391 11.544 106.759 10.888C107.127 10.232 107.599 9.752 108.175 9.448C108.751 9.144 109.407 8.992 110.143 8.992C111.087 8.992 111.903 9.232 112.591 9.712C113.295 10.192 113.839 10.912 114.223 11.872C114.607 12.832 114.799 14.04 114.799 15.496C114.799 17.048 114.583 18.328 114.151 19.336C113.735 20.344 113.159 21.096 112.423 21.592C111.703 22.088 110.887 22.336 109.975 22.336ZM108.607 19.24C109.087 19.24 109.495 19.088 109.831 18.784C110.167 18.464 110.423 18.048 110.599 17.536C110.775 17.008 110.863 16.432 110.863 15.808C110.863 15.184 110.783 14.6 110.623 14.056C110.463 13.512 110.215 13.072 109.879 12.736C109.543 12.4 109.119 12.232 108.607 12.232C108.383 12.232 108.151 12.272 107.911 12.352C107.687 12.432 107.471 12.56 107.263 12.736C107.071 12.896 106.895 13.112 106.735 13.384C106.575 13.64 106.447 13.96 106.351 14.344C106.255 14.712 106.207 15.136 106.207 15.616V15.784C106.207 16.376 106.271 16.888 106.399 17.32C106.543 17.752 106.727 18.112 106.951 18.4C107.175 18.688 107.431 18.904 107.719 19.048C108.007 19.176 108.303 19.24 108.607 19.24ZM119.768 22.336C118.392 22.336 117.368 21.856 116.696 20.896C116.04 19.936 115.712 18.464 115.712 16.48V9.328H119.6V16.432C119.6 17.36 119.728 18.008 119.984 18.376C120.256 18.744 120.64 18.928 121.136 18.928C121.488 18.928 121.808 18.84 122.096 18.664C122.4 18.472 122.664 18.192 122.888 17.824C123.112 17.44 123.28 16.952 123.392 16.36C123.52 15.768 123.584 15.056 123.584 14.224V9.328H127.472V16.288V22H124.16V17.056H123.992C123.896 18.288 123.68 19.296 123.344 20.08C123.008 20.848 122.544 21.416 121.952 21.784C121.36 22.152 120.632 22.336 119.768 22.336ZM133.728 25.792C132.304 25.792 131.176 25.68 130.344 25.456C129.512 25.232 128.92 24.92 128.568 24.52C128.216 24.136 128.04 23.688 128.04 23.176C128.04 22.472 128.32 21.912 128.88 21.496C129.44 21.064 130.256 20.768 131.328 20.608V20.488C130.512 20.488 129.872 20.352 129.408 20.08C128.944 19.792 128.712 19.4 128.712 18.904C128.712 18.44 128.92 18.024 129.336 17.656C129.768 17.288 130.464 17.104 131.424 17.104V16.936C130.56 16.728 129.872 16.328 129.36 15.736C128.848 15.144 128.592 14.376 128.592 13.432C128.592 12.6 128.8 11.88 129.216 11.272C129.648 10.664 130.272 10.192 131.088 9.856C131.904 9.504 132.896 9.328 134.064 9.328H140.376V12.304L136.032 11.752V11.944C137.36 12.12 138.256 12.424 138.72 12.856C139.2 13.272 139.44 13.776 139.44 14.368C139.44 14.96 139.256 15.488 138.888 15.952C138.536 16.416 137.984 16.784 137.232 17.056C136.48 17.312 135.528 17.44 134.376 17.44C134.024 17.44 133.664 17.424 133.296 17.392C132.944 17.36 132.64 17.312 132.384 17.248C132.112 17.36 131.896 17.48 131.736 17.608C131.592 17.72 131.52 17.84 131.52 17.968C131.52 18.048 131.552 18.112 131.616 18.16C131.68 18.192 131.768 18.216 131.88 18.232C132.008 18.248 132.152 18.256 132.312 18.256H136.152C136.488 18.256 136.904 18.28 137.4 18.328C137.912 18.36 138.416 18.48 138.912 18.688C139.424 18.88 139.848 19.208 140.184 19.672C140.52 20.136 140.688 20.792 140.688 21.64C140.688 22.6 140.432 23.384 139.92 23.992C139.424 24.6 138.664 25.048 137.64 25.336C136.616 25.64 135.312 25.792 133.728 25.792ZM133.728 22.384C134.8 22.384 135.592 22.344 136.104 22.264C136.616 22.2 136.952 22.104 137.112 21.976C137.272 21.848 137.352 21.704 137.352 21.544C137.352 21.32 137.288 21.144 137.16 21.016C137.032 20.888 136.872 20.8 136.68 20.752C136.488 20.688 136.296 20.656 136.104 20.656C135.928 20.64 135.784 20.632 135.672 20.632H132.432C131.92 20.808 131.568 20.976 131.376 21.136C131.2 21.28 131.112 21.448 131.112 21.64C131.112 21.864 131.216 22.024 131.424 22.12C131.648 22.232 131.952 22.304 132.336 22.336C132.736 22.368 133.2 22.384 133.728 22.384ZM134.136 15.328C134.648 15.328 135.04 15.168 135.312 14.848C135.6 14.528 135.744 14.088 135.744 13.528C135.744 12.968 135.6 12.52 135.312 12.184C135.024 11.832 134.624 11.656 134.112 11.656C133.616 11.656 133.216 11.832 132.912 12.184C132.624 12.52 132.48 12.968 132.48 13.528C132.48 13.896 132.544 14.216 132.672 14.488C132.8 14.76 132.984 14.968 133.224 15.112C133.48 15.256 133.784 15.328 134.136 15.328Z" fill="#2B3E34"/>
</svg>
